{"asset":{"version":"2.0","generator":"THREE.GLTFExporter"},"scenes":[{"nodes":[0],"name":"AuxScene"}],"scene":0,"nodes":[{"mesh":0}],"bufferViews":[{"buffer":0,"byteOffset":0,"byteLength":432,"target":34962,"byteStride":12},{"buffer":0,"byteOffset":432,"byteLength":432,"target":34962,"byteStride":12},{"buffer":0,"byteOffset":864,"byteLength":288,"target":34962,"byteStride":8}],"buffers":[{"byteLength":1152,"uri":"data:application/octet-stream;base64,"}],"accessors":[{"bufferView":0,"componentType":5126,"count":36,"max":[1.806472897529602,1.3544387817382812,4.798975467681885],"min":[-2.022766351699829,0.0679362341761589,-4.81291389465332],"type":"VEC3"},{"bufferView":1,"componentType":5126,"count":36,"max":[0.5774407386779785,0.5773491859436035,0.5774407386779785],"min":[-0.5774407386779785,-0.5773491859436035,-0.5774407386779785],"type":"VEC3"},{"bufferView":2,"componentType":5126,"count":36,"max":[0.9895890355110168,0.8639163374900818],"min":[0.006803446915000677,0.007832489907741547],"type":"VEC2"}],"materials":[{"pbrMetallicRoughness":{"baseColorFactor":[0.5333333333333333,0.5333333333333333,0.5333333333333333,1],"metallicFactor":0,"roughnessFactor":1}}],"meshes":[{"primitives":[{"mode":4,"attributes":{"POSITION":0,"NORMAL":1,"TEXCOORD_0":2},"material":0}]}]}