{
  "accessors": [
    {
      "bufferView": 0,
      "componentType": 5126,
      "count": 8,
      "max": [
        22.5,
        70.0,
        2.0
      ],
      "min": [
        -22.5,
        -70.0,
        0.0
      ],
      "type": "VEC3"
    },
    {
      "bufferView": 1,
      "componentType": 5125,
      "count": 36,
      "max": [
        7
      ],
      "min": [
        0
      ],
      "type": "SCALAR"
    },
    {
      "bufferView": 2,
      "componentType": 5126,
      "count": 8,
      "max": [
        22.5,
        70.0,
        30.0
      ],
      "min": [
        -22.5,
        -70.0,
        28.0
      ],
      "type": "VEC3"
    },
    {
      "bufferView": 3,
      "componentType": 5125,
      "count": 36,
      "max": [
        7
      ],
      "min": [
        0
      ],
      "type": "SCALAR"
    },
    {
      "bufferView": 4,
      "componentType": 5126,
      "count": 8,
      "max": [
        22.5,
        70.0,
        -5.0
      ],
      "min": [
        -22.5,
        -70.0,
        -7.0
      ],
      "type": "VEC3"
    },
    {
      "bufferView": 5,
      "componentType": 5125,
      "count": 36,
      "max": [
        7
      ],
      "min": [
        0
      ],
      "type": "SCALAR"
    },
    {
      "bufferView": 6,
      "componentType": 5126,
      "count": 8,
      "max": [
        80.06194305419922,
        102.21297454833984,
        0.0
      ],
      "min": [
        -80.06194305419922,
        -102.21297454833984,
        -5.0
      ],
      "type": "VEC3"
    },
    {
      "bufferView": 7,
      "componentType": 5125,
      "count": 36,
      "max": [
        7
      ],
      "min": [
        0
      ],
      "type": "SCALAR"
    },
    {
      "bufferView": 8,
      "componentType": 5126,
      "count": 8,
      "max": [
        80.06194305419922,
        102.21297454833984,
        0.0
      ],
      "min": [
        -80.06194305419922,
        -102.21297454833984,
        -5.0
      ],
      "type": "VEC3"
    },
    {
      "bufferView": 9,
      "componentType": 5125,
      "count": 36,
      "max": [
        7
      ],
      "min": [
        0
      ],
      "type": "SCALAR"
    },
    {
      "bufferView": 10,
      "componentType": 5126,
      "count": 16,
      "max": [
        21.0,
        68.5,
        28.0
      ],
      "min": [
        16.0,
        63.5,
        0.0
      ],
      "type": "VEC3"
    },
    {
      "bufferView": 11,
      "componentType": 5125,
      "count": 84,
      "max": [
        15
      ],
      "min": [
        0
      ],
      "type": "SCALAR"
    },
    {
      "bufferView": 12,
      "componentType": 5126,
      "count": 16,
      "max": [
        21.0,
        -63.5,
        28.0
      ],
      "min": [
        16.0,
        -68.5,
        0.0
      ],
      "type": "VEC3"
    },
    {
      "bufferView": 13,
      "componentType": 5125,
      "count": 84,
      "max": [
        15
      ],
      "min": [
        0
      ],
      "type": "SCALAR"
    },
    {
      "bufferView": 14,
      "componentType": 5126,
      "count": 16,
      "max": [
        -16.0,
        -63.5,
        28.0
      ],
      "min": [
        -21.0,
        -68.5,
        0.0
      ],
      "type": "VEC3"
    },
    {
      "bufferView": 15,
      "componentType": 5125,
      "count": 84,
      "max": [
        15
      ],
      "min": [
        0
      ],
      "type": "SCALAR"
    },
    {
      "bufferView": 16,
      "componentType": 5126,
      "count": 16,
      "max": [
        -16.0,
        68.5,
        28.0
      ],
      "min": [
        -21.0,
        63.5,
        0.0
      ],
      "type": "VEC3"
    },
    {
      "bufferView": 17,
      "componentType": 5125,
      "count": 84,
      "max": [
        15
      ],
      "min": [
        0
      ],
      "type": "SCALAR"
    },
    {
      "bufferView": 18,
      "componentType": 5126,
      "count": 8,
      "max": [
        15.0,
        15.0,
        26.0
      ],
      "min": [
        -15.0,
        -15.0,
        0.0
      ],
      "type": "VEC3"
    },
    {
      "bufferView": 19,
      "componentType": 5125,
      "count": 36,
      "max": [
        7
      ],
      "min": [
        0
      ],
      "type": "SCALAR"
    },
    {
      "bufferView": 20,
      "componentType": 5126,
      "count": 8,
      "max": [
        20.0,
        17.5,
        -7.0
      ],
      "min": [
        -20.0,
        -57.5,
        -42.0
      ],
      "type": "VEC3"
    },
    {
      "bufferView": 21,
      "componentType": 5125,
      "count": 36,
      "max": [
        7
      ],
      "min": [
        0
      ],
      "type": "SCALAR"
    },
    {
      "bufferView": 22,
      "componentType": 5126,
      "count": 8,
      "max": [
        30.0,
        68.49231719970703,
        80.836669921875
      ],
      "min": [
        -30.0,
        29.609092712402344,
        30.0
      ],
      "type": "VEC3"
    },
    {
      "bufferView": 23,
      "componentType": 5125,
      "count": 36,
      "max": [
        7
      ],
      "min": [
        0
      ],
      "type": "SCALAR"
    },
    {
      "bufferView": 24,
      "componentType": 5126,
      "count": 60,
      "max": [
        88.59517669677734,
        111.60069274902344,
        12.0
      ],
      "min": [
        63.59518051147461,
        86.73764038085938,
        0.0
      ],
      "type": "VEC3"
    },
    {
      "bufferView": 25,
      "componentType": 5125,
      "count": 348,
      "max": [
        59
      ],
      "min": [
        0
      ],
      "type": "SCALAR"
    },
    {
      "bufferView": 26,
      "componentType": 5126,
      "count": 60,
      "max": [
        138.59518432617188,
        161.3267822265625,
        17.0
      ],
      "min": [
        13.595178604125977,
        37.01155090332031,
        12.0
      ],
      "type": "VEC3"
    },
    {
      "bufferView": 27,
      "componentType": 5125,
      "count": 348,
      "max": [
        59
      ],
      "min": [
        0
      ],
      "type": "SCALAR"
    },
    {
      "bufferView": 28,
      "componentType": 5126,
      "count": 60,
      "max": [
        88.59517669677734,
        -86.73764038085938,
        12.0
      ],
      "min": [
        63.59518051147461,
        -111.60069274902344,
        0.0
      ],
      "type": "VEC3"
    },
    {
      "bufferView": 29,
      "componentType": 5125,
      "count": 348,
      "max": [
        59
      ],
      "min": [
        0
      ],
      "type": "SCALAR"
    },
    {
      "bufferView": 30,
      "componentType": 5126,
      "count": 60,
      "max": [
        138.59518432617188,
        -37.01155090332031,
        17.0
      ],
      "min": [
        13.595178604125977,
        -161.3267822265625,
        12.0
      ],
      "type": "VEC3"
    },
    {
      "bufferView": 31,
      "componentType": 5125,
      "count": 348,
      "max": [
        59
      ],
      "min": [
        0
      ],
      "type": "SCALAR"
    },
    {
      "bufferView": 32,
      "componentType": 5126,
      "count": 60,
      "max": [
        -63.59518051147461,
        111.60069274902344,
        12.0
      ],
      "min": [
        -88.59517669677734,
        86.73764038085938,
        0.0
      ],
      "type": "VEC3"
    },
    {
      "bufferView": 33,
      "componentType": 5125,
      "count": 348,
      "max": [
        59
      ],
      "min": [
        0
      ],
      "type": "SCALAR"
    },
    {
      "bufferView": 34,
      "componentType": 5126,
      "count": 60,
      "max": [
        -13.595178604125977,
        161.3267822265625,
        17.0
      ],
      "min": [
        -138.59518432617188,
        37.01155090332031,
        12.0
      ],
      "type": "VEC3"
    },
    {
      "bufferView": 35,
      "componentType": 5125,
      "count": 348,
      "max": [
        59
      ],
      "min": [
        0
      ],
      "type": "SCALAR"
    },
    {
      "bufferView": 36,
      "componentType": 5126,
      "count": 60,
      "max": [
        -63.59518051147461,
        -86.73764038085938,
        12.0
      ],
      "min": [
        -88.59517669677734,
        -111.60069274902344,
        0.0
      ],
      "type": "VEC3"
    },
    {
      "bufferView": 37,
      "componentType": 5125,
      "count": 348,
      "max": [
        59
      ],
      "min": [
        0
      ],
      "type": "SCALAR"
    },
    {
      "bufferView": 38,
      "componentType": 5126,
      "count": 60,
      "max": [
        -13.595178604125977,
        -37.01155090332031,
        17.0
      ],
      "min": [
        -138.59518432617188,
        -161.3267822265625,
        12.0
      ],
      "type": "VEC3"
    },
    {
      "bufferView": 39,
      "componentType": 5125,
      "count": 348,
      "max": [
        59
      ],
      "min": [
        0
      ],
      "type": "SCALAR"
    }
  ],
  "asset": {
    "version": "2.0"
  },
  "bufferViews": [
    {
      "buffer": 0,
      "byteLength": 96,
      "target": 34962
    },
    {
      "buffer": 1,
      "byteLength": 144,
      "target": 34963
    },
    {
      "buffer": 2,
      "byteLength": 96,
      "target": 34962
    },
    {
      "buffer": 3,
      "byteLength": 144,
      "target": 34963
    },
    {
      "buffer": 4,
      "byteLength": 96,
      "target": 34962
    },
    {
      "buffer": 5,
      "byteLength": 144,
      "target": 34963
    },
    {
      "buffer": 6,
      "byteLength": 96,
      "target": 34962
    },
    {
      "buffer": 7,
      "byteLength": 144,
      "target": 34963
    },
    {
      "buffer": 8,
      "byteLength": 96,
      "target": 34962
    },
    {
      "buffer": 9,
      "byteLength": 144,
      "target": 34963
    },
    {
      "buffer": 10,
      "byteLength": 192,
      "target": 34962
    },
    {
      "buffer": 11,
      "byteLength": 336,
      "target": 34963
    },
    {
      "buffer": 12,
      "byteLength": 192,
      "target": 34962
    },
    {
      "buffer": 13,
      "byteLength": 336,
      "target": 34963
    },
    {
      "buffer": 14,
      "byteLength": 192,
      "target": 34962
    },
    {
      "buffer": 15,
      "byteLength": 336,
      "target": 34963
    },
    {
      "buffer": 16,
      "byteLength": 192,
      "target": 34962
    },
    {
      "buffer": 17,
      "byteLength": 336,
      "target": 34963
    },
    {
      "buffer": 18,
      "byteLength": 96,
      "target": 34962
    },
    {
      "buffer": 19,
      "byteLength": 144,
      "target": 34963
    },
    {
      "buffer": 20,
      "byteLength": 96,
      "target": 34962
    },
    {
      "buffer": 21,
      "byteLength": 144,
      "target": 34963
    },
    {
      "buffer": 22,
      "byteLength": 96,
      "target": 34962
    },
    {
      "buffer": 23,
      "byteLength": 144,
      "target": 34963
    },
    {
      "buffer": 24,
      "byteLength": 720,
      "target": 34962
    },
    {
      "buffer": 25,
      "byteLength": 1392,
      "target": 34963
    },
    {
      "buffer": 26,
      "byteLength": 720,
      "target": 34962
    },
    {
      "buffer": 27,
      "byteLength": 1392,
      "target": 34963
    },
    {
      "buffer": 28,
      "byteLength": 720,
      "target": 34962
    },
    {
      "buffer": 29,
      "byteLength": 1392,
      "target": 34963
    },
    {
      "buffer": 30,
      "byteLength": 720,
      "target": 34962
    },
    {
      "buffer": 31,
      "byteLength": 1392,
      "target": 34963
    },
    {
      "buffer": 32,
      "byteLength": 720,
      "target": 34962
    },
    {
      "buffer": 33,
      "byteLength": 1392,
      "target": 34963
    },
    {
      "buffer": 34,
      "byteLength": 720,
      "target": 34962
    },
    {
      "buffer": 35,
      "byteLength": 1392,
      "target": 34963
    },
    {
      "buffer": 36,
      "byteLength": 720,
      "target": 34962
    },
    {
      "buffer": 37,
      "byteLength": 1392,
      "target": 34963
    },
    {
      "buffer": 38,
      "byteLength": 720,
      "target": 34962
    },
    {
      "buffer": 39,
      "byteLength": 1392,
      "target": 34963
    }
  ],
  "buffers": [
    {
      "byteLength": 96,
      "uri": "data:application/octet-stream;base64,"
    },
    {
      "byteLength": 144,
      "uri": "data:application/octet-stream;base64,"
    },
    {
      "byteLength": 96,
      "uri": "data:application/octet-stream;base64,"
    },
    {
      "byteLength": 144,
      "uri": "data:application/octet-stream;base64,"
    },
    {
      "byteLength": 96,
      "uri": "data:application/octet-stream;base64,"
    },
    {
      "byteLength": 144,
      "uri": "data:application/octet-stream;base64,"
    },
    {
      "byteLength": 96,
      "uri": "data:application/octet-stream;base64,"
    },
    {
      "byteLength": 144,
      "uri": "data:application/octet-stream;base64,"
    },
    {
      "byteLength": 96,
      "uri": "data:application/octet-stream;base64,"
    },
    {
      "byteLength": 144,
      "uri": "data:application/octet-stream;base64,"
    },
    {
      "byteLength": 192,
      "uri": "data:application/octet-stream;base64,"
    },
    {
      "byteLength": 336,
      "uri": "data:application/octet-stream;base64,"
    },
    {
      "byteLength": 192,
      "uri": "data:application/octet-stream;base64,"
    },
    {
      "byteLength": 336,
      "uri": "data:application/octet-stream;base64,"
    },
    {
      "byteLength": 192,
      "uri": "data:application/octet-stream;base64,"
    },
    {
      "byteLength": 336,
      "uri": "data:application/octet-stream;base64,"
    },
    {
      "byteLength": 192,
      "uri": "data:application/octet-stream;base64,"
    },
    {
      "byteLength": 336,
      "uri": "data:application/octet-stream;base64,"
    },
    {
      "byteLength": 96,
      "uri": "data:application/octet-stream;base64,"
    },
    {
      "byteLength": 144,
      "uri": "data:application/octet-stream;base64,"
    },
    {
      "byteLength": 96,
      "uri": "data:application/octet-stream;base64,"
    },
    {
      "byteLength": 144,
      "uri": "data:application/octet-stream;base64,"
    },
    {
      "byteLength": 96,
      "uri": "data:application/octet-stream;base64,"
    },
    {
      "byteLength": 144,
      "uri": "data:application/octet-stream;base64,"
    },
    {
      "byteLength": 720,
      "uri": "data:application/octet-stream;base64,"
    },
    {
      "byteLength": 1392,
      "uri": "data:application/octet-stream;base64,"
    },
    {
      "byteLength": 720,
      "uri": "data:application/octet-stream;base64,"
    },
    {
      "byteLength": 1392,
      "uri": "data:application/octet-stream;base64,"
    },
    {
      "byteLength": 720,
      "uri": "data:application/octet-stream;base64,"
    },
    {
      "byteLength": 1392,
      "uri": "data:application/octet-stream;base64,"
    },
    {
      "byteLength": 720,
      "uri": "data:application/octet-stream;base64,"
    },
    {
      "byteLength": 1392,
      "uri": "data:application/octet-stream;base64,"
    },
    {
      "byteLength": 720,
      "uri": "data:application/octet-stream;base64,"
    },
    {
      "byteLength": 1392,
      "uri": "data:application/octet-stream;base64,"
    },
    {
      "byteLength": 720,
      "uri": "data:application/octet-stream;base64,"
    },
    {
      "byteLength": 1392,
      "uri": "data:application/octet-stream;base64,"
    },
    {
      "byteLength": 720,
      "uri": "data:application/octet-stream;base64,"
    },
    {
      "byteLength": 1392,
      "uri": "data:application/octet-stream;base64,"
    },
    {
      "byteLength": 720,
      "uri": "data:application/octet-stream;base64,"
    },
    {
      "byteLength": 1392,
      "uri": "data:application/octet-stream;base64,"
    }
  ],
  "materials": [
    {
      "name": "carbon",
      "pbrMetallicRoughness": {
        "baseColorFactor": [
          0.250980406999588,
          0.250980406999588,
          0.250980406999588,
          1.0
        ],
        "metallicFactor": 0.5,
        "roughnessFactor": 0.5
      }
    },
    {
      "name": "standoff",
      "pbrMetallicRoughness": {
        "baseColorFactor": [
          0.0,
          0.7529411911964417,
          0.7529411911964417,
          1.0
        ],
        "metallicFactor": 0.5,
        "roughnessFactor": 0.5
      }
    },
    {
      "name": "stack",
      "pbrMetallicRoughness": {
        "baseColorFactor": [
          0.0,
          0.3764705955982208,
          0.0,
          1.0
        ],
        "metallicFactor": 0.5,
        "roughnessFactor": 0.5
      }
    },
    {
      "name": "battery",
      "pbrMetallicRoughness": {
        "baseColorFactor": [
          0.250980406999588,
          0.0,
          0.0,
          1.0
        ],
        "metallicFactor": 0.5,
        "roughnessFactor": 0.5
      }
    },
    {
      "name": "gopro",
      "pbrMetallicRoughness": {
        "baseColorFactor": [
          0.3764705955982208,
          0.3764705955982208,
          0.3764705955982208,
          1.0
        ],
        "metallicFactor": 0.5,
        "roughnessFactor": 0.5
      }
    },
    {
      "name": "motor",
      "pbrMetallicRoughness": {
        "baseColorFactor": [
          0.125490203499794,
          0.1882352977991104,
          0.250980406999588,
          1.0
        ],
        "metallicFactor": 0.5,
        "roughnessFactor": 0.5
      }
    },
    {
      "name": "prop",
      "pbrMetallicRoughness": {
        "baseColorFactor": [
          0.9411764740943909,
          0.9411764740943909,
          0.9411764740943909,
          1.0
        ],
        "metallicFactor": 0.5,
        "roughnessFactor": 0.5
      }
    }
  ],
  "meshes": [
    {
      "primitives": [
        {
          "attributes": {
            "POSITION": 0
          },
          "indices": 1,
          "material": 0,
          "mode": 4
        }
      ]
    },
    {
      "primitives": [
        {
          "attributes": {
            "POSITION": 2
          },
          "indices": 3,
          "material": 0,
          "mode": 4
        }
      ]
    },
    {
      "primitives": [
        {
          "attributes": {
            "POSITION": 4
          },
          "indices": 5,
          "material": 0,
          "mode": 4
        }
      ]
    },
    {
      "primitives": [
        {
          "attributes": {
            "POSITION": 6
          },
          "indices": 7,
          "material": 0,
          "mode": 4
        }
      ]
    },
    {
      "primitives": [
        {
          "attributes": {
            "POSITION": 8
          },
          "indices": 9,
          "material": 0,
          "mode": 4
        }
      ]
    },
    {
      "primitives": [
        {
          "attributes": {
            "POSITION": 10
          },
          "indices": 11,
          "material": 1,
          "mode": 4
        }
      ]
    },
    {
      "primitives": [
        {
          "attributes": {
            "POSITION": 12
          },
          "indices": 13,
          "material": 1,
          "mode": 4
        }
      ]
    },
    {
      "primitives": [
        {
          "attributes": {
            "POSITION": 14
          },
          "indices": 15,
          "material": 1,
          "mode": 4
        }
      ]
    },
    {
      "primitives": [
        {
          "attributes": {
            "POSITION": 16
          },
          "indices": 17,
          "material": 1,
          "mode": 4
        }
      ]
    },
    {
      "primitives": [
        {
          "attributes": {
            "POSITION": 18
          },
          "indices": 19,
          "material": 2,
          "mode": 4
        }
      ]
    },
    {
      "primitives": [
        {
          "attributes": {
            "POSITION": 20
          },
          "indices": 21,
          "material": 3,
          "mode": 4
        }
      ]
    },
    {
      "primitives": [
        {
          "attributes": {
            "POSITION": 22
          },
          "indices": 23,
          "material": 4,
          "mode": 4
        }
      ]
    },
    {
      "primitives": [
        {
          "attributes": {
            "POSITION": 24
          },
          "indices": 25,
          "material": 5,
          "mode": 4
        }
      ]
    },
    {
      "primitives": [
        {
          "attributes": {
            "POSITION": 26
          },
          "indices": 27,
          "material": 6,
          "mode": 4
        }
      ]
    },
    {
      "primitives": [
        {
          "attributes": {
            "POSITION": 28
          },
          "indices": 29,
          "material": 5,
          "mode": 4
        }
      ]
    },
    {
      "primitives": [
        {
          "attributes": {
            "POSITION": 30
          },
          "indices": 31,
          "material": 6,
          "mode": 4
        }
      ]
    },
    {
      "primitives": [
        {
          "attributes": {
            "POSITION": 32
          },
          "indices": 33,
          "material": 5,
          "mode": 4
        }
      ]
    },
    {
      "primitives": [
        {
          "attributes": {
            "POSITION": 34
          },
          "indices": 35,
          "material": 6,
          "mode": 4
        }
      ]
    },
    {
      "primitives": [
        {
          "attributes": {
            "POSITION": 36
          },
          "indices": 37,
          "material": 5,
          "mode": 4
        }
      ]
    },
    {
      "primitives": [
        {
          "attributes": {
            "POSITION": 38
          },
          "indices": 39,
          "material": 6,
          "mode": 4
        }
      ]
    }
  ],
  "nodes": [
    {
      "children": [
        1
      ],
      "name": "root"
    },
    {
      "children": [
        2,
        3,
        4,
        5,
        6,
        7,
        8,
        9,
        10,
        11,
        12,
        13,
        14,
        17,
        20,
        23
      ]
    },
    {
      "mesh": 0,
      "name": "module plate"
    },
    {
      "mesh": 1,
      "name": "module plate"
    },
    {
      "mesh": 2,
      "name": "module plate"
    },
    {
      "mesh": 3,
      "name": "module arm"
    },
    {
      "mesh": 4,
      "name": "module arm"
    },
    {
      "mesh": 5,
      "name": "module standoff"
    },
    {
      "mesh": 6,
      "name": "module standoff"
    },
    {
      "mesh": 7,
      "name": "module standoff"
    },
    {
      "mesh": 8,
      "name": "module standoff"
    },
    {
      "mesh": 9,
      "name": "module stack"
    },
    {
      "mesh": 10,
      "name": "module battery"
    },
    {
      "mesh": 11,
      "name": "module gopro"
    },
    {
      "children": [
        15,
        16
      ],
      "name": "module motor_prop"
    },
    {
      "mesh": 12,
      "name": "module motor_prop"
    },
    {
      "mesh": 13,
      "name": "module motor_prop"
    },
    {
      "children": [
        18,
        19
      ],
      "name": "module motor_prop"
    },
    {
      "mesh": 14,
      "name": "module motor_prop"
    },
    {
      "mesh": 15,
      "name": "module motor_prop"
    },
    {
      "children": [
        21,
        22
      ],
      "name": "module motor_prop"
    },
    {
      "mesh": 16,
      "name": "module motor_prop"
    },
    {
      "mesh": 17,
      "name": "module motor_prop"
    },
    {
      "children": [
        24,
        25
      ],
      "name": "module motor_prop"
    },
    {
      "mesh": 18,
      "name": "module motor_prop"
    },
    {
      "mesh": 19,
      "name": "module motor_prop"
    }
  ],
  "scene": 0,
  "scenes": [
    {
      "nodes": [
        0
      ]
    }
  ]
}
